<mxfile host="65bd71144e" pages="3">
    <diagram name="WebParser get_distributors" id="2YBvvXClWsGukQMizWep">
        <mxGraphModel dx="1240" dy="896" grid="0" gridSize="10" guides="1" tooltips="1" connect="1" arrows="1" fold="1" page="0" pageScale="1" pageWidth="1100" pageHeight="850" math="0" shadow="0">
            <root>
                <mxCell id="0"/>
                <mxCell id="1" parent="0"/>
                <mxCell id="aM9ryv3xv72pqoxQDRHE-5" value="pa_power_switch_instance:PAPowerSwitch_API" style="shape=umlLifeline;perimeter=lifelinePerimeter;whiteSpace=wrap;html=1;container=0;dropTarget=0;collapsible=0;recursiveResize=0;outlineConnect=0;portConstraint=eastwest;newEdgeStyle={&quot;edgeStyle&quot;:&quot;elbowEdgeStyle&quot;,&quot;elbow&quot;:&quot;vertical&quot;,&quot;curved&quot;:0,&quot;rounded&quot;:0};" parent="1" vertex="1">
                    <mxGeometry x="138" y="313" width="265" height="300" as="geometry"/>
                </mxCell>
                <mxCell id="aM9ryv3xv72pqoxQDRHE-6" value="" style="html=1;points=[];perimeter=orthogonalPerimeter;outlineConnect=0;targetShapes=umlLifeline;portConstraint=eastwest;newEdgeStyle={&quot;edgeStyle&quot;:&quot;elbowEdgeStyle&quot;,&quot;elbow&quot;:&quot;vertical&quot;,&quot;curved&quot;:0,&quot;rounded&quot;:0};" parent="aM9ryv3xv72pqoxQDRHE-5" vertex="1">
                    <mxGeometry x="128" y="70" width="10" height="160" as="geometry"/>
                </mxCell>
                <mxCell id="XMeLWeaDgcHeaULcNXHY-28" value="" style="html=1;points=[];perimeter=orthogonalPerimeter;outlineConnect=0;targetShapes=umlLifeline;portConstraint=eastwest;newEdgeStyle={&quot;edgeStyle&quot;:&quot;elbowEdgeStyle&quot;,&quot;elbow&quot;:&quot;vertical&quot;,&quot;curved&quot;:0,&quot;rounded&quot;:0};" parent="aM9ryv3xv72pqoxQDRHE-5" vertex="1">
                    <mxGeometry x="133" y="71" width="10" height="69" as="geometry"/>
                </mxCell>
                <mxCell id="XMeLWeaDgcHeaULcNXHY-29" value="" style="html=1;points=[];perimeter=orthogonalPerimeter;outlineConnect=0;targetShapes=umlLifeline;portConstraint=eastwest;newEdgeStyle={&quot;edgeStyle&quot;:&quot;elbowEdgeStyle&quot;,&quot;elbow&quot;:&quot;vertical&quot;,&quot;curved&quot;:0,&quot;rounded&quot;:0};" parent="aM9ryv3xv72pqoxQDRHE-5" vertex="1">
                    <mxGeometry x="133" y="158" width="10" height="42" as="geometry"/>
                </mxCell>
                <mxCell id="XMeLWeaDgcHeaULcNXHY-5" value="api_core_instace:API_Core" style="shape=umlLifeline;perimeter=lifelinePerimeter;whiteSpace=wrap;html=1;container=0;dropTarget=0;collapsible=0;recursiveResize=0;outlineConnect=0;portConstraint=eastwest;newEdgeStyle={&quot;edgeStyle&quot;:&quot;elbowEdgeStyle&quot;,&quot;elbow&quot;:&quot;vertical&quot;,&quot;curved&quot;:0,&quot;rounded&quot;:0};" parent="1" vertex="1">
                    <mxGeometry x="438" y="313" width="170" height="300" as="geometry"/>
                </mxCell>
                <mxCell id="XMeLWeaDgcHeaULcNXHY-6" value="" style="html=1;points=[];perimeter=orthogonalPerimeter;outlineConnect=0;targetShapes=umlLifeline;portConstraint=eastwest;newEdgeStyle={&quot;edgeStyle&quot;:&quot;elbowEdgeStyle&quot;,&quot;elbow&quot;:&quot;vertical&quot;,&quot;curved&quot;:0,&quot;rounded&quot;:0};" parent="XMeLWeaDgcHeaULcNXHY-5" vertex="1">
                    <mxGeometry x="80" y="70" width="10" height="70" as="geometry"/>
                </mxCell>
                <mxCell id="XMeLWeaDgcHeaULcNXHY-8" value="" style="html=1;points=[];perimeter=orthogonalPerimeter;outlineConnect=0;targetShapes=umlLifeline;portConstraint=eastwest;newEdgeStyle={&quot;edgeStyle&quot;:&quot;elbowEdgeStyle&quot;,&quot;elbow&quot;:&quot;vertical&quot;,&quot;curved&quot;:0,&quot;rounded&quot;:0};" parent="XMeLWeaDgcHeaULcNXHY-5" vertex="1">
                    <mxGeometry x="85" y="82" width="10" height="48" as="geometry"/>
                </mxCell>
                <mxCell id="XMeLWeaDgcHeaULcNXHY-9" value="papowerswitch_api:&lt;br&gt;zip_endpoint" style="shape=umlLifeline;perimeter=lifelinePerimeter;whiteSpace=wrap;html=1;container=0;dropTarget=0;collapsible=0;recursiveResize=0;outlineConnect=0;portConstraint=eastwest;newEdgeStyle={&quot;edgeStyle&quot;:&quot;elbowEdgeStyle&quot;,&quot;elbow&quot;:&quot;vertical&quot;,&quot;curved&quot;:0,&quot;rounded&quot;:0};" parent="1" vertex="1">
                    <mxGeometry x="643" y="313" width="140" height="300" as="geometry"/>
                </mxCell>
                <mxCell id="XMeLWeaDgcHeaULcNXHY-10" value="" style="html=1;points=[];perimeter=orthogonalPerimeter;outlineConnect=0;targetShapes=umlLifeline;portConstraint=eastwest;newEdgeStyle={&quot;edgeStyle&quot;:&quot;elbowEdgeStyle&quot;,&quot;elbow&quot;:&quot;vertical&quot;,&quot;curved&quot;:0,&quot;rounded&quot;:0};" parent="XMeLWeaDgcHeaULcNXHY-9" vertex="1">
                    <mxGeometry x="65" y="82" width="10" height="40" as="geometry"/>
                </mxCell>
                <mxCell id="XMeLWeaDgcHeaULcNXHY-12" value="" style="html=1;points=[];perimeter=orthogonalPerimeter;outlineConnect=0;targetShapes=umlLifeline;portConstraint=eastwest;newEdgeStyle={&quot;edgeStyle&quot;:&quot;elbowEdgeStyle&quot;,&quot;elbow&quot;:&quot;vertical&quot;,&quot;curved&quot;:0,&quot;rounded&quot;:0};" parent="XMeLWeaDgcHeaULcNXHY-9" vertex="1">
                    <mxGeometry x="69" y="92" width="10" height="30" as="geometry"/>
                </mxCell>
                <mxCell id="XMeLWeaDgcHeaULcNXHY-7" value="get_distributors(zip_code)" style="html=1;verticalAlign=bottom;startArrow=oval;endArrow=block;startSize=8;edgeStyle=elbowEdgeStyle;elbow=vertical;curved=0;rounded=0;entryX=0;entryY=0.018;entryDx=0;entryDy=0;entryPerimeter=0;" parent="1" source="aM9ryv3xv72pqoxQDRHE-5" target="XMeLWeaDgcHeaULcNXHY-6" edge="1">
                    <mxGeometry relative="1" as="geometry">
                        <mxPoint x="343" y="384" as="sourcePoint"/>
                        <mxPoint x="507.5" y="384.28571428571433" as="targetPoint"/>
                    </mxGeometry>
                </mxCell>
                <mxCell id="XMeLWeaDgcHeaULcNXHY-21" value="get_zip_search_endpoint(zip_code)" style="html=1;verticalAlign=bottom;startArrow=oval;endArrow=block;startSize=8;edgeStyle=elbowEdgeStyle;elbow=vertical;curved=0;rounded=0;" parent="1" source="XMeLWeaDgcHeaULcNXHY-8" target="XMeLWeaDgcHeaULcNXHY-9" edge="1">
                    <mxGeometry relative="1" as="geometry">
                        <mxPoint x="558" y="395" as="sourcePoint"/>
                        <mxPoint x="678" y="395" as="targetPoint"/>
                        <Array as="points">
                            <mxPoint x="538" y="395"/>
                        </Array>
                    </mxGeometry>
                </mxCell>
                <mxCell id="XMeLWeaDgcHeaULcNXHY-22" value="d:distributor" style="shape=umlLifeline;perimeter=lifelinePerimeter;whiteSpace=wrap;html=1;container=0;dropTarget=0;collapsible=0;recursiveResize=0;outlineConnect=0;portConstraint=eastwest;newEdgeStyle={&quot;edgeStyle&quot;:&quot;elbowEdgeStyle&quot;,&quot;elbow&quot;:&quot;vertical&quot;,&quot;curved&quot;:0,&quot;rounded&quot;:0};" parent="1" vertex="1">
                    <mxGeometry x="823" y="453" width="140" height="160" as="geometry"/>
                </mxCell>
                <mxCell id="XMeLWeaDgcHeaULcNXHY-23" value="" style="html=1;points=[];perimeter=orthogonalPerimeter;outlineConnect=0;targetShapes=umlLifeline;portConstraint=eastwest;newEdgeStyle={&quot;edgeStyle&quot;:&quot;elbowEdgeStyle&quot;,&quot;elbow&quot;:&quot;vertical&quot;,&quot;curved&quot;:0,&quot;rounded&quot;:0};" parent="XMeLWeaDgcHeaULcNXHY-22" vertex="1">
                    <mxGeometry x="65" y="41" width="10" height="19" as="geometry"/>
                </mxCell>
                <mxCell id="XMeLWeaDgcHeaULcNXHY-25" value="initialize(response)" style="html=1;verticalAlign=bottom;startArrow=oval;endArrow=block;startSize=8;edgeStyle=elbowEdgeStyle;elbow=vertical;curved=0;rounded=0;entryX=0;entryY=0.111;entryDx=0;entryDy=0;entryPerimeter=0;" parent="1" edge="1">
                    <mxGeometry relative="1" as="geometry">
                        <mxPoint x="278" y="473" as="sourcePoint"/>
                        <mxPoint x="823.0000000000002" y="472.76" as="targetPoint"/>
                    </mxGeometry>
                </mxCell>
                <mxCell id="aM9ryv3xv72pqoxQDRHE-10" value="return" style="html=1;verticalAlign=bottom;endArrow=open;dashed=1;endSize=8;edgeStyle=elbowEdgeStyle;elbow=vertical;curved=0;rounded=0;" parent="1" target="XMeLWeaDgcHeaULcNXHY-8" edge="1">
                    <mxGeometry relative="1" as="geometry">
                        <mxPoint x="538" y="435" as="targetPoint"/>
                        <Array as="points">
                            <mxPoint x="503" y="434.8"/>
                        </Array>
                        <mxPoint x="713" y="435" as="sourcePoint"/>
                    </mxGeometry>
                </mxCell>
                <mxCell id="XMeLWeaDgcHeaULcNXHY-27" value="return response" style="html=1;verticalAlign=bottom;endArrow=open;dashed=1;endSize=8;edgeStyle=elbowEdgeStyle;elbow=vertical;curved=0;rounded=0;" parent="1" target="XMeLWeaDgcHeaULcNXHY-28" edge="1">
                    <mxGeometry relative="1" as="geometry">
                        <mxPoint x="278" y="453" as="targetPoint"/>
                        <Array as="points">
                            <mxPoint x="308" y="453"/>
                        </Array>
                        <mxPoint x="518" y="453.2" as="sourcePoint"/>
                    </mxGeometry>
                </mxCell>
                <mxCell id="XMeLWeaDgcHeaULcNXHY-30" value="return" style="html=1;verticalAlign=bottom;endArrow=open;dashed=1;endSize=8;edgeStyle=elbowEdgeStyle;elbow=vertical;curved=0;rounded=0;" parent="1" target="XMeLWeaDgcHeaULcNXHY-29" edge="1">
                    <mxGeometry relative="1" as="geometry">
                        <mxPoint x="288" y="508" as="targetPoint"/>
                        <Array as="points">
                            <mxPoint x="678" y="513"/>
                        </Array>
                        <mxPoint x="888" y="513.2" as="sourcePoint"/>
                    </mxGeometry>
                </mxCell>
                <mxCell id="XMeLWeaDgcHeaULcNXHY-31" value="WebParser: get_distributors interaction" style="text;html=1;strokeColor=default;fillColor=none;align=center;verticalAlign=middle;whiteSpace=wrap;rounded=0;" parent="1" vertex="1">
                    <mxGeometry x="420" y="238" width="260" height="30" as="geometry"/>
                </mxCell>
            </root>
        </mxGraphModel>
    </diagram>
    <diagram name="WebParser get_offers" id="nTTP2HI5AFDTThv7E8CJ">
        <mxGraphModel dx="1240" dy="896" grid="0" gridSize="10" guides="1" tooltips="1" connect="1" arrows="1" fold="1" page="0" pageScale="1" pageWidth="1100" pageHeight="850" math="0" shadow="0">
            <root>
                <mxCell id="XuS8CWX-rO8_mFxTx4Tf-0"/>
                <mxCell id="XuS8CWX-rO8_mFxTx4Tf-1" parent="XuS8CWX-rO8_mFxTx4Tf-0"/>
                <mxCell id="2gzy2S9PNK2qdMtHJjor-0" value="api_core_instace:API_Core" style="shape=umlLifeline;perimeter=lifelinePerimeter;whiteSpace=wrap;html=1;container=0;dropTarget=0;collapsible=0;recursiveResize=0;outlineConnect=0;portConstraint=eastwest;newEdgeStyle={&quot;edgeStyle&quot;:&quot;elbowEdgeStyle&quot;,&quot;elbow&quot;:&quot;vertical&quot;,&quot;curved&quot;:0,&quot;rounded&quot;:0};" parent="XuS8CWX-rO8_mFxTx4Tf-1" vertex="1">
                    <mxGeometry x="433" y="313" width="170" height="300" as="geometry"/>
                </mxCell>
                <mxCell id="2gzy2S9PNK2qdMtHJjor-1" value="" style="html=1;points=[];perimeter=orthogonalPerimeter;outlineConnect=0;targetShapes=umlLifeline;portConstraint=eastwest;newEdgeStyle={&quot;edgeStyle&quot;:&quot;elbowEdgeStyle&quot;,&quot;elbow&quot;:&quot;vertical&quot;,&quot;curved&quot;:0,&quot;rounded&quot;:0};" parent="2gzy2S9PNK2qdMtHJjor-0" vertex="1">
                    <mxGeometry x="80" y="70" width="10" height="70" as="geometry"/>
                </mxCell>
                <mxCell id="2gzy2S9PNK2qdMtHJjor-2" value="" style="html=1;points=[];perimeter=orthogonalPerimeter;outlineConnect=0;targetShapes=umlLifeline;portConstraint=eastwest;newEdgeStyle={&quot;edgeStyle&quot;:&quot;elbowEdgeStyle&quot;,&quot;elbow&quot;:&quot;vertical&quot;,&quot;curved&quot;:0,&quot;rounded&quot;:0};" parent="2gzy2S9PNK2qdMtHJjor-0" vertex="1">
                    <mxGeometry x="85" y="82" width="10" height="48" as="geometry"/>
                </mxCell>
                <mxCell id="XuS8CWX-rO8_mFxTx4Tf-9" value="papowerswitch _api:rate_endpoint" style="shape=umlLifeline;perimeter=lifelinePerimeter;whiteSpace=wrap;html=1;container=0;dropTarget=0;collapsible=0;recursiveResize=0;outlineConnect=0;portConstraint=eastwest;newEdgeStyle={&quot;edgeStyle&quot;:&quot;elbowEdgeStyle&quot;,&quot;elbow&quot;:&quot;vertical&quot;,&quot;curved&quot;:0,&quot;rounded&quot;:0};" parent="XuS8CWX-rO8_mFxTx4Tf-1" vertex="1">
                    <mxGeometry x="648" y="313" width="140" height="295" as="geometry"/>
                </mxCell>
                <mxCell id="XuS8CWX-rO8_mFxTx4Tf-10" value="" style="html=1;points=[];perimeter=orthogonalPerimeter;outlineConnect=0;targetShapes=umlLifeline;portConstraint=eastwest;newEdgeStyle={&quot;edgeStyle&quot;:&quot;elbowEdgeStyle&quot;,&quot;elbow&quot;:&quot;vertical&quot;,&quot;curved&quot;:0,&quot;rounded&quot;:0};" parent="XuS8CWX-rO8_mFxTx4Tf-9" vertex="1">
                    <mxGeometry x="65" y="82" width="10" height="38" as="geometry"/>
                </mxCell>
                <mxCell id="XuS8CWX-rO8_mFxTx4Tf-11" value="" style="html=1;points=[];perimeter=orthogonalPerimeter;outlineConnect=0;targetShapes=umlLifeline;portConstraint=eastwest;newEdgeStyle={&quot;edgeStyle&quot;:&quot;elbowEdgeStyle&quot;,&quot;elbow&quot;:&quot;vertical&quot;,&quot;curved&quot;:0,&quot;rounded&quot;:0};" parent="XuS8CWX-rO8_mFxTx4Tf-9" vertex="1">
                    <mxGeometry x="69" y="90" width="10" height="30" as="geometry"/>
                </mxCell>
                <mxCell id="XuS8CWX-rO8_mFxTx4Tf-12" value="get_offers(id, rate_type)" style="html=1;verticalAlign=bottom;startArrow=oval;endArrow=block;startSize=8;edgeStyle=elbowEdgeStyle;elbow=vertical;curved=0;rounded=0;" parent="XuS8CWX-rO8_mFxTx4Tf-1" source="2LxVgeFFNytaEMB3Xg9G-0" edge="1">
                    <mxGeometry relative="1" as="geometry">
                        <mxPoint x="348" y="384" as="sourcePoint"/>
                        <mxPoint x="512.5" y="384.28571428571433" as="targetPoint"/>
                    </mxGeometry>
                </mxCell>
                <mxCell id="XuS8CWX-rO8_mFxTx4Tf-13" value="get_rates_endpoint(id_rate_type)" style="html=1;verticalAlign=bottom;startArrow=oval;endArrow=block;startSize=8;edgeStyle=elbowEdgeStyle;elbow=vertical;curved=0;rounded=0;" parent="XuS8CWX-rO8_mFxTx4Tf-1" target="XuS8CWX-rO8_mFxTx4Tf-9" edge="1">
                    <mxGeometry relative="1" as="geometry">
                        <mxPoint x="518" y="395" as="sourcePoint"/>
                        <mxPoint x="683" y="395" as="targetPoint"/>
                    </mxGeometry>
                </mxCell>
                <mxCell id="XuS8CWX-rO8_mFxTx4Tf-14" value="o:offer" style="shape=umlLifeline;perimeter=lifelinePerimeter;whiteSpace=wrap;html=1;container=0;dropTarget=0;collapsible=0;recursiveResize=0;outlineConnect=0;portConstraint=eastwest;newEdgeStyle={&quot;edgeStyle&quot;:&quot;elbowEdgeStyle&quot;,&quot;elbow&quot;:&quot;vertical&quot;,&quot;curved&quot;:0,&quot;rounded&quot;:0};" parent="XuS8CWX-rO8_mFxTx4Tf-1" vertex="1">
                    <mxGeometry x="828" y="453" width="140" height="160" as="geometry"/>
                </mxCell>
                <mxCell id="XuS8CWX-rO8_mFxTx4Tf-15" value="" style="html=1;points=[];perimeter=orthogonalPerimeter;outlineConnect=0;targetShapes=umlLifeline;portConstraint=eastwest;newEdgeStyle={&quot;edgeStyle&quot;:&quot;elbowEdgeStyle&quot;,&quot;elbow&quot;:&quot;vertical&quot;,&quot;curved&quot;:0,&quot;rounded&quot;:0};" parent="XuS8CWX-rO8_mFxTx4Tf-14" vertex="1">
                    <mxGeometry x="65" y="41" width="10" height="19" as="geometry"/>
                </mxCell>
                <mxCell id="XuS8CWX-rO8_mFxTx4Tf-16" value="initialize(response)" style="html=1;verticalAlign=bottom;startArrow=oval;endArrow=block;startSize=8;edgeStyle=elbowEdgeStyle;elbow=vertical;curved=0;rounded=0;entryX=0;entryY=0.111;entryDx=0;entryDy=0;entryPerimeter=0;" parent="XuS8CWX-rO8_mFxTx4Tf-1" edge="1">
                    <mxGeometry relative="1" as="geometry">
                        <mxPoint x="265.31034482758605" y="472.62068965517244" as="sourcePoint"/>
                        <mxPoint x="828" y="472.76" as="targetPoint"/>
                    </mxGeometry>
                </mxCell>
                <mxCell id="XuS8CWX-rO8_mFxTx4Tf-17" value="return" style="html=1;verticalAlign=bottom;endArrow=open;dashed=1;endSize=8;edgeStyle=elbowEdgeStyle;elbow=vertical;curved=0;rounded=0;" parent="XuS8CWX-rO8_mFxTx4Tf-1" target="2gzy2S9PNK2qdMtHJjor-2" edge="1">
                    <mxGeometry relative="1" as="geometry">
                        <mxPoint x="523" y="433" as="targetPoint"/>
                        <Array as="points">
                            <mxPoint x="508" y="432.8"/>
                        </Array>
                        <mxPoint x="718" y="433" as="sourcePoint"/>
                    </mxGeometry>
                </mxCell>
                <mxCell id="XuS8CWX-rO8_mFxTx4Tf-18" value="return response" style="html=1;verticalAlign=bottom;endArrow=open;dashed=1;endSize=8;edgeStyle=elbowEdgeStyle;elbow=vertical;curved=0;rounded=0;" parent="XuS8CWX-rO8_mFxTx4Tf-1" target="2LxVgeFFNytaEMB3Xg9G-2" edge="1">
                    <mxGeometry relative="1" as="geometry">
                        <mxPoint x="348" y="453" as="targetPoint"/>
                        <Array as="points">
                            <mxPoint x="313" y="452.8"/>
                        </Array>
                        <mxPoint x="512.5" y="452.79999999999995" as="sourcePoint"/>
                    </mxGeometry>
                </mxCell>
                <mxCell id="XuS8CWX-rO8_mFxTx4Tf-19" value="return" style="html=1;verticalAlign=bottom;endArrow=open;dashed=1;endSize=8;edgeStyle=elbowEdgeStyle;elbow=vertical;curved=0;rounded=0;" parent="XuS8CWX-rO8_mFxTx4Tf-1" target="2LxVgeFFNytaEMB3Xg9G-3" edge="1">
                    <mxGeometry relative="1" as="geometry">
                        <mxPoint x="342.5" y="513" as="targetPoint"/>
                        <Array as="points">
                            <mxPoint x="683" y="513"/>
                        </Array>
                        <mxPoint x="893" y="513.2" as="sourcePoint"/>
                    </mxGeometry>
                </mxCell>
                <mxCell id="XuS8CWX-rO8_mFxTx4Tf-20" value="WebParser: get_offers interaction" style="text;html=1;strokeColor=default;fillColor=none;align=center;verticalAlign=middle;whiteSpace=wrap;rounded=0;" parent="XuS8CWX-rO8_mFxTx4Tf-1" vertex="1">
                    <mxGeometry x="420" y="238" width="260" height="30" as="geometry"/>
                </mxCell>
                <mxCell id="2LxVgeFFNytaEMB3Xg9G-0" value="pa_power_switch_instance:PAPowerSwitch_API" style="shape=umlLifeline;perimeter=lifelinePerimeter;whiteSpace=wrap;html=1;container=0;dropTarget=0;collapsible=0;recursiveResize=0;outlineConnect=0;portConstraint=eastwest;newEdgeStyle={&quot;edgeStyle&quot;:&quot;elbowEdgeStyle&quot;,&quot;elbow&quot;:&quot;vertical&quot;,&quot;curved&quot;:0,&quot;rounded&quot;:0};" parent="XuS8CWX-rO8_mFxTx4Tf-1" vertex="1">
                    <mxGeometry x="133" y="313" width="265" height="300" as="geometry"/>
                </mxCell>
                <mxCell id="2LxVgeFFNytaEMB3Xg9G-1" value="" style="html=1;points=[];perimeter=orthogonalPerimeter;outlineConnect=0;targetShapes=umlLifeline;portConstraint=eastwest;newEdgeStyle={&quot;edgeStyle&quot;:&quot;elbowEdgeStyle&quot;,&quot;elbow&quot;:&quot;vertical&quot;,&quot;curved&quot;:0,&quot;rounded&quot;:0};" parent="2LxVgeFFNytaEMB3Xg9G-0" vertex="1">
                    <mxGeometry x="128" y="70" width="10" height="160" as="geometry"/>
                </mxCell>
                <mxCell id="2LxVgeFFNytaEMB3Xg9G-2" value="" style="html=1;points=[];perimeter=orthogonalPerimeter;outlineConnect=0;targetShapes=umlLifeline;portConstraint=eastwest;newEdgeStyle={&quot;edgeStyle&quot;:&quot;elbowEdgeStyle&quot;,&quot;elbow&quot;:&quot;vertical&quot;,&quot;curved&quot;:0,&quot;rounded&quot;:0};" parent="2LxVgeFFNytaEMB3Xg9G-0" vertex="1">
                    <mxGeometry x="133" y="71" width="10" height="69" as="geometry"/>
                </mxCell>
                <mxCell id="2LxVgeFFNytaEMB3Xg9G-3" value="" style="html=1;points=[];perimeter=orthogonalPerimeter;outlineConnect=0;targetShapes=umlLifeline;portConstraint=eastwest;newEdgeStyle={&quot;edgeStyle&quot;:&quot;elbowEdgeStyle&quot;,&quot;elbow&quot;:&quot;vertical&quot;,&quot;curved&quot;:0,&quot;rounded&quot;:0};" parent="2LxVgeFFNytaEMB3Xg9G-0" vertex="1">
                    <mxGeometry x="133" y="160" width="10" height="40" as="geometry"/>
                </mxCell>
            </root>
        </mxGraphModel>
    </diagram>
    <diagram name="Django DB" id="PKQRn7qYojGt0m-p-SgM">
        <mxGraphModel dx="1240" dy="896" grid="0" gridSize="10" guides="1" tooltips="1" connect="1" arrows="1" fold="1" page="0" pageScale="1" pageWidth="1100" pageHeight="850" math="0" shadow="0">
            <root>
                <mxCell id="r2hPy6vQ2hzi6oFaZl0J-0"/>
                <mxCell id="r2hPy6vQ2hzi6oFaZl0J-1" parent="r2hPy6vQ2hzi6oFaZl0J-0"/>
                <mxCell id="r2hPy6vQ2hzi6oFaZl0J-2" value="user:User" style="shape=umlLifeline;perimeter=lifelinePerimeter;whiteSpace=wrap;html=1;container=0;dropTarget=0;collapsible=0;recursiveResize=0;outlineConnect=0;portConstraint=eastwest;newEdgeStyle={&quot;edgeStyle&quot;:&quot;elbowEdgeStyle&quot;,&quot;elbow&quot;:&quot;vertical&quot;,&quot;curved&quot;:0,&quot;rounded&quot;:0};" parent="r2hPy6vQ2hzi6oFaZl0J-1" vertex="1">
                    <mxGeometry x="453" y="156" width="130" height="666" as="geometry"/>
                </mxCell>
                <mxCell id="grPhJiHCFEYS1sM1EYGN-5" value="" style="html=1;points=[];perimeter=orthogonalPerimeter;outlineConnect=0;targetShapes=umlLifeline;portConstraint=eastwest;newEdgeStyle={&quot;edgeStyle&quot;:&quot;elbowEdgeStyle&quot;,&quot;elbow&quot;:&quot;vertical&quot;,&quot;curved&quot;:0,&quot;rounded&quot;:0};" parent="r2hPy6vQ2hzi6oFaZl0J-2" vertex="1">
                    <mxGeometry x="60" y="40" width="10" height="370" as="geometry"/>
                </mxCell>
                <mxCell id="r2hPy6vQ2hzi6oFaZl0J-3" value="" style="html=1;points=[];perimeter=orthogonalPerimeter;outlineConnect=0;targetShapes=umlLifeline;portConstraint=eastwest;newEdgeStyle={&quot;edgeStyle&quot;:&quot;elbowEdgeStyle&quot;,&quot;elbow&quot;:&quot;vertical&quot;,&quot;curved&quot;:0,&quot;rounded&quot;:0};" parent="r2hPy6vQ2hzi6oFaZl0J-2" vertex="1">
                    <mxGeometry x="54" y="40" width="10" height="30" as="geometry"/>
                </mxCell>
                <mxCell id="grPhJiHCFEYS1sM1EYGN-6" value="" style="html=1;points=[];perimeter=orthogonalPerimeter;outlineConnect=0;targetShapes=umlLifeline;portConstraint=eastwest;newEdgeStyle={&quot;edgeStyle&quot;:&quot;elbowEdgeStyle&quot;,&quot;elbow&quot;:&quot;vertical&quot;,&quot;curved&quot;:0,&quot;rounded&quot;:0};" parent="r2hPy6vQ2hzi6oFaZl0J-2" vertex="1">
                    <mxGeometry x="54" y="95" width="10" height="35" as="geometry"/>
                </mxCell>
                <mxCell id="grPhJiHCFEYS1sM1EYGN-24" value="" style="html=1;points=[];perimeter=orthogonalPerimeter;outlineConnect=0;targetShapes=umlLifeline;portConstraint=eastwest;newEdgeStyle={&quot;edgeStyle&quot;:&quot;elbowEdgeStyle&quot;,&quot;elbow&quot;:&quot;vertical&quot;,&quot;curved&quot;:0,&quot;rounded&quot;:0};" parent="r2hPy6vQ2hzi6oFaZl0J-2" vertex="1">
                    <mxGeometry x="54" y="351" width="10" height="20" as="geometry"/>
                </mxCell>
                <mxCell id="TpjSTH8qSlH9usUcV6zF-0" value="" style="html=1;points=[];perimeter=orthogonalPerimeter;outlineConnect=0;targetShapes=umlLifeline;portConstraint=eastwest;newEdgeStyle={&quot;edgeStyle&quot;:&quot;elbowEdgeStyle&quot;,&quot;elbow&quot;:&quot;vertical&quot;,&quot;curved&quot;:0,&quot;rounded&quot;:0};" parent="r2hPy6vQ2hzi6oFaZl0J-2" vertex="1">
                    <mxGeometry x="65" y="382" width="10" height="10" as="geometry"/>
                </mxCell>
                <mxCell id="TpjSTH8qSlH9usUcV6zF-1" value="save" style="html=1;align=left;spacingLeft=2;endArrow=block;rounded=0;edgeStyle=orthogonalEdgeStyle;curved=0;rounded=0;" parent="r2hPy6vQ2hzi6oFaZl0J-2" target="TpjSTH8qSlH9usUcV6zF-0" edge="1">
                    <mxGeometry relative="1" as="geometry">
                        <mxPoint x="65" y="371" as="sourcePoint"/>
                        <Array as="points">
                            <mxPoint x="95" y="371"/>
                            <mxPoint x="95" y="382"/>
                            <mxPoint x="70" y="382"/>
                        </Array>
                    </mxGeometry>
                </mxCell>
                <mxCell id="r2hPy6vQ2hzi6oFaZl0J-6" value="user_preferences:UserPreferences" style="shape=umlLifeline;perimeter=lifelinePerimeter;whiteSpace=wrap;html=1;container=0;dropTarget=0;collapsible=0;recursiveResize=0;outlineConnect=0;portConstraint=eastwest;newEdgeStyle={&quot;edgeStyle&quot;:&quot;elbowEdgeStyle&quot;,&quot;elbow&quot;:&quot;vertical&quot;,&quot;curved&quot;:0,&quot;rounded&quot;:0};" parent="r2hPy6vQ2hzi6oFaZl0J-1" vertex="1">
                    <mxGeometry x="814" y="562" width="194" height="255" as="geometry"/>
                </mxCell>
                <mxCell id="r2hPy6vQ2hzi6oFaZl0J-7" value="" style="html=1;points=[];perimeter=orthogonalPerimeter;outlineConnect=0;targetShapes=umlLifeline;portConstraint=eastwest;newEdgeStyle={&quot;edgeStyle&quot;:&quot;elbowEdgeStyle&quot;,&quot;elbow&quot;:&quot;vertical&quot;,&quot;curved&quot;:0,&quot;rounded&quot;:0};" parent="r2hPy6vQ2hzi6oFaZl0J-6" vertex="1">
                    <mxGeometry x="93" y="40" width="10" height="100" as="geometry"/>
                </mxCell>
                <mxCell id="r2hPy6vQ2hzi6oFaZl0J-8" value="" style="html=1;points=[];perimeter=orthogonalPerimeter;outlineConnect=0;targetShapes=umlLifeline;portConstraint=eastwest;newEdgeStyle={&quot;edgeStyle&quot;:&quot;elbowEdgeStyle&quot;,&quot;elbow&quot;:&quot;vertical&quot;,&quot;curved&quot;:0,&quot;rounded&quot;:0};" parent="r2hPy6vQ2hzi6oFaZl0J-6" vertex="1">
                    <mxGeometry x="88" y="40" width="10" height="40" as="geometry"/>
                </mxCell>
                <mxCell id="r2hPy6vQ2hzi6oFaZl0J-9" value="form:RegisterForm" style="shape=umlLifeline;perimeter=lifelinePerimeter;whiteSpace=wrap;html=1;container=0;dropTarget=0;collapsible=0;recursiveResize=0;outlineConnect=0;portConstraint=eastwest;newEdgeStyle={&quot;edgeStyle&quot;:&quot;elbowEdgeStyle&quot;,&quot;elbow&quot;:&quot;vertical&quot;,&quot;curved&quot;:0,&quot;rounded&quot;:0};" parent="r2hPy6vQ2hzi6oFaZl0J-1" vertex="1">
                    <mxGeometry x="633" y="102" width="140" height="720" as="geometry"/>
                </mxCell>
                <mxCell id="r2hPy6vQ2hzi6oFaZl0J-10" value="" style="html=1;points=[];perimeter=orthogonalPerimeter;outlineConnect=0;targetShapes=umlLifeline;portConstraint=eastwest;newEdgeStyle={&quot;edgeStyle&quot;:&quot;elbowEdgeStyle&quot;,&quot;elbow&quot;:&quot;vertical&quot;,&quot;curved&quot;:0,&quot;rounded&quot;:0};" parent="r2hPy6vQ2hzi6oFaZl0J-9" vertex="1">
                    <mxGeometry x="65" y="324" width="10" height="38" as="geometry"/>
                </mxCell>
                <mxCell id="r2hPy6vQ2hzi6oFaZl0J-11" value="" style="html=1;points=[];perimeter=orthogonalPerimeter;outlineConnect=0;targetShapes=umlLifeline;portConstraint=eastwest;newEdgeStyle={&quot;edgeStyle&quot;:&quot;elbowEdgeStyle&quot;,&quot;elbow&quot;:&quot;vertical&quot;,&quot;curved&quot;:0,&quot;rounded&quot;:0};" parent="r2hPy6vQ2hzi6oFaZl0J-9" vertex="1">
                    <mxGeometry x="61" y="324" width="10" height="30" as="geometry"/>
                </mxCell>
                <mxCell id="r2hPy6vQ2hzi6oFaZl0J-17" value="return" style="html=1;verticalAlign=bottom;endArrow=open;dashed=1;endSize=8;edgeStyle=elbowEdgeStyle;elbow=vertical;curved=0;rounded=0;" parent="r2hPy6vQ2hzi6oFaZl0J-1" target="grPhJiHCFEYS1sM1EYGN-2" edge="1">
                    <mxGeometry relative="1" as="geometry">
                        <mxPoint x="313" y="227.20000000000005" as="targetPoint"/>
                        <Array as="points">
                            <mxPoint x="308" y="227"/>
                        </Array>
                        <mxPoint x="518" y="227.20000000000005" as="sourcePoint"/>
                    </mxGeometry>
                </mxCell>
                <mxCell id="grPhJiHCFEYS1sM1EYGN-0" value="rv:registration_view" style="shape=umlLifeline;perimeter=lifelinePerimeter;whiteSpace=wrap;html=1;container=0;dropTarget=0;collapsible=0;recursiveResize=0;outlineConnect=0;portConstraint=eastwest;newEdgeStyle={&quot;edgeStyle&quot;:&quot;elbowEdgeStyle&quot;,&quot;elbow&quot;:&quot;vertical&quot;,&quot;curved&quot;:0,&quot;rounded&quot;:0};" parent="r2hPy6vQ2hzi6oFaZl0J-1" vertex="1">
                    <mxGeometry x="213" y="102" width="130" height="720" as="geometry"/>
                </mxCell>
                <mxCell id="grPhJiHCFEYS1sM1EYGN-1" value="" style="html=1;points=[];perimeter=orthogonalPerimeter;outlineConnect=0;targetShapes=umlLifeline;portConstraint=eastwest;newEdgeStyle={&quot;edgeStyle&quot;:&quot;elbowEdgeStyle&quot;,&quot;elbow&quot;:&quot;vertical&quot;,&quot;curved&quot;:0,&quot;rounded&quot;:0};" parent="grPhJiHCFEYS1sM1EYGN-0" vertex="1">
                    <mxGeometry x="60" y="70" width="10" height="550" as="geometry"/>
                </mxCell>
                <mxCell id="grPhJiHCFEYS1sM1EYGN-2" value="" style="html=1;points=[];perimeter=orthogonalPerimeter;outlineConnect=0;targetShapes=umlLifeline;portConstraint=eastwest;newEdgeStyle={&quot;edgeStyle&quot;:&quot;elbowEdgeStyle&quot;,&quot;elbow&quot;:&quot;vertical&quot;,&quot;curved&quot;:0,&quot;rounded&quot;:0};" parent="grPhJiHCFEYS1sM1EYGN-0" vertex="1">
                    <mxGeometry x="65" y="75" width="10" height="55" as="geometry"/>
                </mxCell>
                <mxCell id="grPhJiHCFEYS1sM1EYGN-3" value="" style="html=1;points=[];perimeter=orthogonalPerimeter;outlineConnect=0;targetShapes=umlLifeline;portConstraint=eastwest;newEdgeStyle={&quot;edgeStyle&quot;:&quot;elbowEdgeStyle&quot;,&quot;elbow&quot;:&quot;vertical&quot;,&quot;curved&quot;:0,&quot;rounded&quot;:0};" parent="grPhJiHCFEYS1sM1EYGN-0" vertex="1">
                    <mxGeometry x="65" y="149" width="10" height="41" as="geometry"/>
                </mxCell>
                <mxCell id="grPhJiHCFEYS1sM1EYGN-10" value="" style="html=1;points=[];perimeter=orthogonalPerimeter;outlineConnect=0;targetShapes=umlLifeline;portConstraint=eastwest;newEdgeStyle={&quot;edgeStyle&quot;:&quot;elbowEdgeStyle&quot;,&quot;elbow&quot;:&quot;vertical&quot;,&quot;curved&quot;:0,&quot;rounded&quot;:0};" parent="grPhJiHCFEYS1sM1EYGN-0" vertex="1">
                    <mxGeometry x="55" y="251" width="10" height="15" as="geometry"/>
                </mxCell>
                <mxCell id="grPhJiHCFEYS1sM1EYGN-19" value="" style="html=1;points=[];perimeter=orthogonalPerimeter;outlineConnect=0;targetShapes=umlLifeline;portConstraint=eastwest;newEdgeStyle={&quot;edgeStyle&quot;:&quot;elbowEdgeStyle&quot;,&quot;elbow&quot;:&quot;vertical&quot;,&quot;curved&quot;:0,&quot;rounded&quot;:0};" parent="grPhJiHCFEYS1sM1EYGN-0" vertex="1">
                    <mxGeometry x="65" y="324" width="10" height="41" as="geometry"/>
                </mxCell>
                <mxCell id="grPhJiHCFEYS1sM1EYGN-21" value="" style="html=1;points=[];perimeter=orthogonalPerimeter;outlineConnect=0;targetShapes=umlLifeline;portConstraint=eastwest;newEdgeStyle={&quot;edgeStyle&quot;:&quot;elbowEdgeStyle&quot;,&quot;elbow&quot;:&quot;vertical&quot;,&quot;curved&quot;:0,&quot;rounded&quot;:0};" parent="grPhJiHCFEYS1sM1EYGN-0" vertex="1">
                    <mxGeometry x="65" y="406" width="10" height="50" as="geometry"/>
                </mxCell>
                <mxCell id="TpjSTH8qSlH9usUcV6zF-5" value="" style="html=1;points=[];perimeter=orthogonalPerimeter;outlineConnect=0;targetShapes=umlLifeline;portConstraint=eastwest;newEdgeStyle={&quot;edgeStyle&quot;:&quot;elbowEdgeStyle&quot;,&quot;elbow&quot;:&quot;vertical&quot;,&quot;curved&quot;:0,&quot;rounded&quot;:0};" parent="grPhJiHCFEYS1sM1EYGN-0" vertex="1">
                    <mxGeometry x="65" y="479" width="10" height="67" as="geometry"/>
                </mxCell>
                <mxCell id="grPhJiHCFEYS1sM1EYGN-4" value="User.objects.get(email)" style="html=1;verticalAlign=bottom;startArrow=oval;endArrow=block;startSize=8;edgeStyle=elbowEdgeStyle;elbow=vertical;curved=0;rounded=0;" parent="r2hPy6vQ2hzi6oFaZl0J-1" target="grPhJiHCFEYS1sM1EYGN-6" edge="1">
                    <mxGeometry relative="1" as="geometry">
                        <mxPoint x="283" y="251" as="sourcePoint"/>
                        <mxPoint x="503" y="251" as="targetPoint"/>
                    </mxGeometry>
                </mxCell>
                <mxCell id="grPhJiHCFEYS1sM1EYGN-7" value="User.Exists == True" style="shape=umlFrame;whiteSpace=wrap;html=1;pointerEvents=0;width=130;height=25;" parent="r2hPy6vQ2hzi6oFaZl0J-1" vertex="1">
                    <mxGeometry x="143" y="302" width="450" height="100" as="geometry"/>
                </mxCell>
                <mxCell id="grPhJiHCFEYS1sM1EYGN-9" value="return" style="html=1;verticalAlign=bottom;endArrow=open;dashed=1;endSize=8;edgeStyle=elbowEdgeStyle;elbow=vertical;curved=0;rounded=0;" parent="r2hPy6vQ2hzi6oFaZl0J-1" target="grPhJiHCFEYS1sM1EYGN-3" edge="1">
                    <mxGeometry relative="1" as="geometry">
                        <mxPoint x="293" y="287" as="targetPoint"/>
                        <Array as="points">
                            <mxPoint x="303" y="287"/>
                        </Array>
                        <mxPoint x="513" y="287.20000000000005" as="sourcePoint"/>
                    </mxGeometry>
                </mxCell>
                <mxCell id="grPhJiHCFEYS1sM1EYGN-11" value="message(&quot;User Already Exists&quot;)" style="html=1;verticalAlign=bottom;startArrow=oval;endArrow=block;startSize=8;edgeStyle=elbowEdgeStyle;elbow=vertical;curved=0;rounded=0;" parent="r2hPy6vQ2hzi6oFaZl0J-1" target="grPhJiHCFEYS1sM1EYGN-12" edge="1">
                    <mxGeometry relative="1" as="geometry">
                        <mxPoint x="273" y="353.16999999999996" as="sourcePoint"/>
                        <mxPoint x="113" y="353" as="targetPoint"/>
                        <Array as="points">
                            <mxPoint x="223" y="353"/>
                        </Array>
                    </mxGeometry>
                </mxCell>
                <mxCell id="r2hPy6vQ2hzi6oFaZl0J-12" value="get_user_model()" style="html=1;verticalAlign=bottom;startArrow=oval;endArrow=block;startSize=8;edgeStyle=elbowEdgeStyle;elbow=vertical;curved=0;rounded=0;" parent="r2hPy6vQ2hzi6oFaZl0J-1" edge="1">
                    <mxGeometry relative="1" as="geometry">
                        <mxPoint x="283" y="177" as="sourcePoint"/>
                        <mxPoint x="453" y="177" as="targetPoint"/>
                    </mxGeometry>
                </mxCell>
                <mxCell id="grPhJiHCFEYS1sM1EYGN-12" value="User" style="shape=umlActor;verticalLabelPosition=bottom;verticalAlign=top;html=1;" parent="r2hPy6vQ2hzi6oFaZl0J-1" vertex="1">
                    <mxGeometry x="73" y="322" width="30" height="60" as="geometry"/>
                </mxCell>
                <mxCell id="grPhJiHCFEYS1sM1EYGN-17" value="User.Exists == False" style="shape=umlFrame;whiteSpace=wrap;html=1;pointerEvents=0;width=130;height=25;" parent="r2hPy6vQ2hzi6oFaZl0J-1" vertex="1">
                    <mxGeometry x="143" y="402" width="877" height="380" as="geometry"/>
                </mxCell>
                <mxCell id="r2hPy6vQ2hzi6oFaZl0J-16" value="form.cleaned_data(user_name, first_name, last_name, zip_code)" style="html=1;verticalAlign=bottom;startArrow=oval;endArrow=block;startSize=8;edgeStyle=elbowEdgeStyle;elbow=vertical;curved=0;rounded=0;" parent="r2hPy6vQ2hzi6oFaZl0J-1" target="r2hPy6vQ2hzi6oFaZl0J-11" edge="1">
                    <mxGeometry relative="1" as="geometry">
                        <mxPoint x="283" y="426" as="sourcePoint"/>
                        <mxPoint x="673" y="426" as="targetPoint"/>
                    </mxGeometry>
                </mxCell>
                <mxCell id="grPhJiHCFEYS1sM1EYGN-20" value="return" style="html=1;verticalAlign=bottom;endArrow=open;dashed=1;endSize=8;edgeStyle=elbowEdgeStyle;elbow=vertical;curved=0;rounded=0;" parent="r2hPy6vQ2hzi6oFaZl0J-1" source="r2hPy6vQ2hzi6oFaZl0J-11" target="grPhJiHCFEYS1sM1EYGN-19" edge="1">
                    <mxGeometry relative="1" as="geometry">
                        <mxPoint x="368" y="451.58000000000004" as="targetPoint"/>
                        <Array as="points">
                            <mxPoint x="293" y="452"/>
                        </Array>
                        <mxPoint x="593" y="451.7800000000001" as="sourcePoint"/>
                    </mxGeometry>
                </mxCell>
                <mxCell id="grPhJiHCFEYS1sM1EYGN-23" value="user.save()" style="html=1;verticalAlign=bottom;startArrow=oval;endArrow=block;startSize=8;edgeStyle=elbowEdgeStyle;elbow=vertical;curved=0;rounded=0;" parent="r2hPy6vQ2hzi6oFaZl0J-1" target="grPhJiHCFEYS1sM1EYGN-24" edge="1">
                    <mxGeometry relative="1" as="geometry">
                        <mxPoint x="283" y="508" as="sourcePoint"/>
                        <mxPoint x="493" y="508" as="targetPoint"/>
                    </mxGeometry>
                </mxCell>
                <mxCell id="TpjSTH8qSlH9usUcV6zF-3" value="activate_email()" style="html=1;align=left;spacingLeft=2;endArrow=block;rounded=0;edgeStyle=orthogonalEdgeStyle;curved=0;rounded=0;" parent="r2hPy6vQ2hzi6oFaZl0J-1" edge="1">
                    <mxGeometry relative="1" as="geometry">
                        <mxPoint x="288" y="529" as="sourcePoint"/>
                        <Array as="points">
                            <mxPoint x="318" y="529"/>
                            <mxPoint x="318" y="559"/>
                        </Array>
                        <mxPoint x="288" y="559" as="targetPoint"/>
                    </mxGeometry>
                </mxCell>
                <mxCell id="TpjSTH8qSlH9usUcV6zF-4" value="User_Preferences(user_id, zip_code, email_notifications)" style="html=1;verticalAlign=bottom;startArrow=oval;endArrow=classic;startSize=8;edgeStyle=elbowEdgeStyle;elbow=vertical;curved=0;rounded=0;endFill=1;" parent="r2hPy6vQ2hzi6oFaZl0J-1" edge="1">
                    <mxGeometry relative="1" as="geometry">
                        <mxPoint x="283" y="583" as="sourcePoint"/>
                        <mxPoint x="813" y="583" as="targetPoint"/>
                    </mxGeometry>
                </mxCell>
                <mxCell id="TpjSTH8qSlH9usUcV6zF-7" value="return" style="html=1;verticalAlign=bottom;endArrow=open;dashed=1;endSize=8;edgeStyle=elbowEdgeStyle;elbow=vertical;curved=0;rounded=0;" parent="r2hPy6vQ2hzi6oFaZl0J-1" source="r2hPy6vQ2hzi6oFaZl0J-8" target="TpjSTH8qSlH9usUcV6zF-5" edge="1">
                    <mxGeometry relative="1" as="geometry">
                        <mxPoint x="471" y="639" as="targetPoint"/>
                        <Array as="points">
                            <mxPoint x="476" y="639"/>
                        </Array>
                        <mxPoint x="877" y="639" as="sourcePoint"/>
                    </mxGeometry>
                </mxCell>
                <mxCell id="TpjSTH8qSlH9usUcV6zF-8" value="" style="html=1;points=[];perimeter=orthogonalPerimeter;outlineConnect=0;targetShapes=umlLifeline;portConstraint=eastwest;newEdgeStyle={&quot;edgeStyle&quot;:&quot;elbowEdgeStyle&quot;,&quot;elbow&quot;:&quot;vertical&quot;,&quot;curved&quot;:0,&quot;rounded&quot;:0};" parent="r2hPy6vQ2hzi6oFaZl0J-1" vertex="1">
                    <mxGeometry x="278" y="662" width="10" height="12" as="geometry"/>
                </mxCell>
                <mxCell id="TpjSTH8qSlH9usUcV6zF-9" value="user_preferences.save()" style="html=1;verticalAlign=bottom;startArrow=oval;endArrow=block;startSize=8;edgeStyle=elbowEdgeStyle;elbow=vertical;curved=0;rounded=0;" parent="r2hPy6vQ2hzi6oFaZl0J-1" target="TpjSTH8qSlH9usUcV6zF-10" edge="1">
                    <mxGeometry relative="1" as="geometry">
                        <mxPoint x="281" y="662.28" as="sourcePoint"/>
                        <mxPoint x="505" y="662.28" as="targetPoint"/>
                    </mxGeometry>
                </mxCell>
                <mxCell id="TpjSTH8qSlH9usUcV6zF-10" value="" style="html=1;points=[];perimeter=orthogonalPerimeter;outlineConnect=0;targetShapes=umlLifeline;portConstraint=eastwest;newEdgeStyle={&quot;edgeStyle&quot;:&quot;elbowEdgeStyle&quot;,&quot;elbow&quot;:&quot;vertical&quot;,&quot;curved&quot;:0,&quot;rounded&quot;:0};" parent="r2hPy6vQ2hzi6oFaZl0J-1" vertex="1">
                    <mxGeometry x="902" y="662" width="10" height="20" as="geometry"/>
                </mxCell>
                <mxCell id="TpjSTH8qSlH9usUcV6zF-11" value="" style="html=1;points=[];perimeter=orthogonalPerimeter;outlineConnect=0;targetShapes=umlLifeline;portConstraint=eastwest;newEdgeStyle={&quot;edgeStyle&quot;:&quot;elbowEdgeStyle&quot;,&quot;elbow&quot;:&quot;vertical&quot;,&quot;curved&quot;:0,&quot;rounded&quot;:0};" parent="r2hPy6vQ2hzi6oFaZl0J-1" vertex="1">
                    <mxGeometry x="913" y="693" width="10" height="10" as="geometry"/>
                </mxCell>
                <mxCell id="TpjSTH8qSlH9usUcV6zF-12" value="save" style="html=1;align=left;spacingLeft=2;endArrow=block;rounded=0;edgeStyle=orthogonalEdgeStyle;curved=0;rounded=0;" parent="r2hPy6vQ2hzi6oFaZl0J-1" target="TpjSTH8qSlH9usUcV6zF-11" edge="1">
                    <mxGeometry relative="1" as="geometry">
                        <mxPoint x="913" y="682" as="sourcePoint"/>
                        <Array as="points">
                            <mxPoint x="943" y="682"/>
                            <mxPoint x="943" y="693"/>
                            <mxPoint x="918" y="693"/>
                        </Array>
                    </mxGeometry>
                </mxCell>
                <mxCell id="TpjSTH8qSlH9usUcV6zF-13" value="" style="html=1;points=[];perimeter=orthogonalPerimeter;outlineConnect=0;targetShapes=umlLifeline;portConstraint=eastwest;newEdgeStyle={&quot;edgeStyle&quot;:&quot;elbowEdgeStyle&quot;,&quot;elbow&quot;:&quot;vertical&quot;,&quot;curved&quot;:0,&quot;rounded&quot;:0};" parent="r2hPy6vQ2hzi6oFaZl0J-1" vertex="1">
                    <mxGeometry x="268" y="693" width="10" height="15" as="geometry"/>
                </mxCell>
                <mxCell id="TpjSTH8qSlH9usUcV6zF-14" value="redirect(login)" style="html=1;verticalAlign=bottom;startArrow=oval;endArrow=block;startSize=8;edgeStyle=elbowEdgeStyle;elbow=vertical;curved=0;rounded=0;" parent="r2hPy6vQ2hzi6oFaZl0J-1" edge="1">
                    <mxGeometry relative="1" as="geometry">
                        <mxPoint x="273" y="693.17" as="sourcePoint"/>
                        <mxPoint x="88" y="408" as="targetPoint"/>
                        <Array as="points">
                            <mxPoint x="223" y="693"/>
                        </Array>
                    </mxGeometry>
                </mxCell>
                <mxCell id="Jat5lZjWUgKiQjAVWvQr-0" value="Django DB Update: User Registration" style="text;html=1;strokeColor=default;fillColor=none;align=center;verticalAlign=middle;whiteSpace=wrap;rounded=0;" parent="r2hPy6vQ2hzi6oFaZl0J-1" vertex="1">
                    <mxGeometry x="398" y="28" width="260" height="30" as="geometry"/>
                </mxCell>
                <mxCell id="pL7VUthSFAq-dEEIlMab-0" value="" style="html=1;points=[];perimeter=orthogonalPerimeter;outlineConnect=0;targetShapes=umlLifeline;portConstraint=eastwest;newEdgeStyle={&quot;edgeStyle&quot;:&quot;elbowEdgeStyle&quot;,&quot;elbow&quot;:&quot;vertical&quot;,&quot;curved&quot;:0,&quot;rounded&quot;:0};" parent="r2hPy6vQ2hzi6oFaZl0J-1" vertex="1">
                    <mxGeometry x="278" y="478" width="10" height="20" as="geometry"/>
                </mxCell>
                <mxCell id="pL7VUthSFAq-dEEIlMab-3" value="user.assign_form_data()" style="html=1;align=left;spacingLeft=2;endArrow=block;rounded=0;edgeStyle=orthogonalEdgeStyle;curved=0;rounded=0;" parent="r2hPy6vQ2hzi6oFaZl0J-1" target="pL7VUthSFAq-dEEIlMab-0" edge="1">
                    <mxGeometry relative="1" as="geometry">
                        <mxPoint x="288" y="478" as="sourcePoint"/>
                        <Array as="points">
                            <mxPoint x="318" y="478"/>
                            <mxPoint x="318" y="489"/>
                            <mxPoint x="293" y="489"/>
                            <mxPoint x="293" y="488"/>
                        </Array>
                        <mxPoint x="298" y="489" as="targetPoint"/>
                    </mxGeometry>
                </mxCell>
            </root>
        </mxGraphModel>
    </diagram>
    <diagram id="KSuRsZAGSaqLlHU9sB9L" name="EmailScheduler">
        <mxGraphModel dx="1640" dy="896" grid="0" gridSize="10" guides="1" tooltips="1" connect="1" arrows="1" fold="1" page="0" pageScale="1" pageWidth="850" pageHeight="1100" math="0" shadow="0">
            <root>
                <mxCell id="0"/>
                <mxCell id="1" parent="0"/>
                <mxCell id="TS5NPPOgySEkcFyktZua-1" value="email_batch_instance:&lt;br&gt;Email_Batch" style="shape=umlLifeline;perimeter=lifelinePerimeter;whiteSpace=wrap;html=1;container=0;dropTarget=0;collapsible=0;recursiveResize=0;outlineConnect=0;portConstraint=eastwest;newEdgeStyle={&quot;edgeStyle&quot;:&quot;elbowEdgeStyle&quot;,&quot;elbow&quot;:&quot;vertical&quot;,&quot;curved&quot;:0,&quot;rounded&quot;:0};" vertex="1" parent="1">
                    <mxGeometry x="170" y="281" width="130" height="331" as="geometry"/>
                </mxCell>
                <mxCell id="TS5NPPOgySEkcFyktZua-2" value="" style="html=1;points=[];perimeter=orthogonalPerimeter;outlineConnect=0;targetShapes=umlLifeline;portConstraint=eastwest;newEdgeStyle={&quot;edgeStyle&quot;:&quot;elbowEdgeStyle&quot;,&quot;elbow&quot;:&quot;vertical&quot;,&quot;curved&quot;:0,&quot;rounded&quot;:0};" vertex="1" parent="TS5NPPOgySEkcFyktZua-1">
                    <mxGeometry x="60" y="89" width="10" height="187" as="geometry"/>
                </mxCell>
                <mxCell id="TS5NPPOgySEkcFyktZua-3" value="gmail_service:Gmail" style="shape=umlLifeline;perimeter=lifelinePerimeter;whiteSpace=wrap;html=1;container=0;dropTarget=0;collapsible=0;recursiveResize=0;outlineConnect=0;portConstraint=eastwest;newEdgeStyle={&quot;edgeStyle&quot;:&quot;elbowEdgeStyle&quot;,&quot;elbow&quot;:&quot;vertical&quot;,&quot;curved&quot;:0,&quot;rounded&quot;:0};" vertex="1" parent="1">
                    <mxGeometry x="728" y="277" width="140" height="335" as="geometry"/>
                </mxCell>
                <mxCell id="TS5NPPOgySEkcFyktZua-4" value="EmailScheduler: send_contract_expiration_emails" style="text;html=1;strokeColor=default;fillColor=none;align=center;verticalAlign=middle;whiteSpace=wrap;rounded=0;" vertex="1" parent="1">
                    <mxGeometry x="371" y="215" width="260" height="30" as="geometry"/>
                </mxCell>
                <mxCell id="TS5NPPOgySEkcFyktZua-5" value="send_contract_expiration_emails()" style="html=1;verticalAlign=bottom;startArrow=oval;endArrow=block;startSize=8;edgeStyle=elbowEdgeStyle;elbow=vertical;curved=0;rounded=0;" edge="1" parent="1" target="TS5NPPOgySEkcFyktZua-2">
                    <mxGeometry relative="1" as="geometry">
                        <mxPoint x="-43" y="397" as="sourcePoint"/>
                        <mxPoint x="145.5" y="375.28571428571433" as="targetPoint"/>
                        <Array as="points">
                            <mxPoint x="102" y="397"/>
                        </Array>
                    </mxGeometry>
                </mxCell>
                <mxCell id="TS5NPPOgySEkcFyktZua-6" value="" style="html=1;points=[];perimeter=orthogonalPerimeter;" vertex="1" parent="1">
                    <mxGeometry x="235" y="409" width="10" height="40" as="geometry"/>
                </mxCell>
                <mxCell id="TS5NPPOgySEkcFyktZua-7" value="get_offer_options(email)" style="edgeStyle=orthogonalEdgeStyle;html=1;align=left;spacingLeft=2;endArrow=block;rounded=0;entryX=1;entryY=0;" edge="1" parent="1" target="TS5NPPOgySEkcFyktZua-6">
                    <mxGeometry x="0.0133" relative="1" as="geometry">
                        <mxPoint x="240" y="389" as="sourcePoint"/>
                        <Array as="points">
                            <mxPoint x="270" y="389"/>
                        </Array>
                        <mxPoint as="offset"/>
                    </mxGeometry>
                </mxCell>
                <mxCell id="TS5NPPOgySEkcFyktZua-8" value="" style="html=1;points=[];perimeter=orthogonalPerimeter;" vertex="1" parent="1">
                    <mxGeometry x="235" y="486" width="10" height="40" as="geometry"/>
                </mxCell>
                <mxCell id="TS5NPPOgySEkcFyktZua-9" value="django.template.loader.render_to_string(email_template, context)" style="edgeStyle=orthogonalEdgeStyle;html=1;align=left;spacingLeft=2;endArrow=block;rounded=0;entryX=1;entryY=0;" edge="1" parent="1" target="TS5NPPOgySEkcFyktZua-8">
                    <mxGeometry x="0.0133" relative="1" as="geometry">
                        <mxPoint x="240" y="466" as="sourcePoint"/>
                        <Array as="points">
                            <mxPoint x="270" y="466"/>
                        </Array>
                        <mxPoint as="offset"/>
                    </mxGeometry>
                </mxCell>
                <mxCell id="TS5NPPOgySEkcFyktZua-10" value="" style="html=1;points=[];perimeter=orthogonalPerimeter;" vertex="1" parent="1">
                    <mxGeometry x="793" y="523" width="10" height="68" as="geometry"/>
                </mxCell>
                <mxCell id="TS5NPPOgySEkcFyktZua-11" value="django.core.mail.send_mail(subject, &quot;&quot;, from, to, message)" style="html=1;verticalAlign=bottom;startArrow=oval;startFill=1;endArrow=block;startSize=8;" edge="1" parent="1" target="TS5NPPOgySEkcFyktZua-10">
                    <mxGeometry width="60" relative="1" as="geometry">
                        <mxPoint x="236" y="544" as="sourcePoint"/>
                        <mxPoint x="296" y="544" as="targetPoint"/>
                    </mxGeometry>
                </mxCell>
                <mxCell id="TS5NPPOgySEkcFyktZua-12" value="for each row in Contract_Watch_Dog_Instance.contract_end_dates_df" style="shape=umlFrame;whiteSpace=wrap;html=1;width=413;height=28;boundedLbl=1;verticalAlign=middle;align=left;spacingLeft=5;" vertex="1" parent="1">
                    <mxGeometry x="196" y="332" width="481" height="249" as="geometry"/>
                </mxCell>
            </root>
        </mxGraphModel>
    </diagram>
</mxfile>